<svg version="1.1" id="Capa_1" xmlns="http://www.w3.org/2000/svg" xmlns:xlink="http://www.w3.org/1999/xlink" x="0px" y="0px" viewBox="0 0 1200 1200" enable-background="new 0 0 1200 1200" xml:space="preserve">
<g>
	<path fill="#280412" d="M1133.489,947.049c0,0-3.106-10.302-4.255-15.077c-2.328-9.671-4.435-19.379-7.175-28.947&#10;&#9;&#9;c-4.194-14.64-21.199-43.078-21.199-43.078s-14.997-46.304-29.402-64.7c-1.869-2.387-3.896-4.691-5.268-7.395&#10;&#9;&#9;c-1.127-2.221-1.779-4.647-2.423-7.053c0-19.095-11.89-43.738-18.645-61.547c-8.249-21.748-17.755-42.987-26.919-64.357&#10;&#9;&#9;c-19.423-45.293-43.174-89.211-69.931-130.602c-6.157-9.526-12.565-18.884-19.333-27.987c-5.321-7.158-11.323-19.386-20.669-20.785&#10;&#9;&#9;c-8.602-1.288-18.146-0.034-26.77,0.474c-29.919,1.761-59.967,5.974-88.896,13.913c-26.519,7.278-53.37,17.996-75.477,34.794&#10;&#9;&#9;c-0.602-9.909-5.189-18.864-15.388-23.694c-13.849-6.559-31.857-6.755-43.869,3.519c-6.268,5.361-10.242,12.416-14.01,19.611&#10;&#9;&#9;c-9.822-19.8-23.817-44.325-46.551-30.694c-16.897,10.132-27.221,37.259-19.126,54.439c-8.571,1.96-17.066,5.13-23.872,9.745&#10;&#9;&#9;c-19.539-21.163-49.721-35.192-75.12-47.832c-30.406-15.131-62.099-25.226-93.753-37.096&#10;&#9;&#9;c-16.719-6.146-41.757-17.484-60.008-12.544c-15.054,4.074-29.826,28.769-39.556,41.107&#10;&#9;&#9;c-26.716,33.878-50.025,70.354-71.297,107.853c-28.585,50.391-64.224,101.586-74.019,159.781&#10;&#9;&#9;c-0.942,5.597,2.33,11.271,8.579,11.262c7.24-0.011,14.492,0.054,21.749,0.186c-11.291,6.41-22.429,13.162-33.05,20.222&#10;&#9;&#9;c-1.509,0.25-2.921,1.045-3.827,2.572c-13.469,22.688-25.299,46.085-36.537,69.955c-5.25,11.151-10.288,22.46-14.283,34.128&#10;&#9;&#9;c-2.823,8.244-5.215,16.635-7.594,25.015c-1.796,6.325-4.114,12.596-5.098,19.056c-4.141-0.068-8.283-0.141-12.425-0.188&#10;&#9;&#9;c-4.27-0.048-8.194,3.736-8.069,8.07c0.34,11.805,0.679,23.609,1.019,35.414c0.126,4.366,3.571,7.966,8.014,8.014&#10;&#9;&#9;c62.836,0.682,125.671,1.611,188.505,2.455c80.659,1.083,161.321,1.979,241.984,2.754c17.916,0.172,35.832,0.344,53.748,0.518&#10;&#9;&#9;c3.113,0.03,5.219-2.092,6.28-4.782c2.575-6.528,6.991-31.3,16.564-30.113c10.489,1.311,11.483,13.505,13.86,21.537&#10;&#9;&#9;c4.111,13.894,8.419,15.021,23.175,15.456c147.773,4.356,295.736,1.36,443.552,0.396c31.184-0.203,62.371-0.343,93.554-0.716&#10;&#9;&#9;c5.132-0.062,9.917-4.412,9.738-9.738c-0.488-14.562-0.976-29.124-1.464-43.686&#10;&#9;&#9;C1148.357,951.488,1133.489,947.049,1133.489,947.049z M1104.791,910.665c-1.182-0.057-2.298-0.125-3.278-0.247&#10;&#9;&#9;c-9.106-1.139-18.164-2.765-27.291-3.728c-16.281-1.718-32.745-2.169-49.105-2.319c-8.414-0.077-16.827,0.182-25.24,0.345&#10;&#9;&#9;c-8.747,0.169-16.949-0.335-25.192,3.011c-6.489,2.634-6.506,10.639,0,13.276c13.833,5.608,31.765,3.267,46.552,3.718&#10;&#9;&#9;c16.183,0.493,32.365,0.958,48.518,2.141c11.712,0.858,26.578,5.514,39.258,4.248c0.684,3.366,1.365,6.732,2.105,10.086&#10;&#9;&#9;c0.457,2.067,0.868,4.126,1.333,6.136c-34.086,0.445-68.172,0.94-102.254,1.622c-45.6,0.914-91.209,3.139-136.818,3.21&#10;&#9;&#9;c-40.964,0.064-81.933,0.844-122.892,1.432c-22.512,0.323-45.023,0.658-67.534,0.98c-13.838,0.198-28.077,1.343-41.897,0.413&#10;&#9;&#9;c-0.247-0.02-0.495-0.04-0.742-0.06c0.236-2.199,0.98-3.782,2.081-4.971c2.742-2.959,31.578-10.471,41.132-13.07&#10;&#9;&#9;c21.173-5.76,42.435-11.332,63.859-16.085c4.775-1.059,9.569-2.138,14.411-2.85c28.147-4.112,56.562-6.505,84.917-8.642&#10;&#9;&#9;c26.508-1.997,55.927-2.296,81.453-10.249c5.863-1.827,4.139-9.335-1.36-10.048c-27.173-3.524-56.684,0.032-83.907,2.036&#10;&#9;&#9;c-28.131,2.07-56.2,4.69-84.098,8.913c-27.576,4.174-55.161,9.702-81.596,18.725c-21.125,7.211-41.06,17.128-61.177,27.469&#10;&#9;&#9;c-0.404-0.728-3.237-3.391-3.673-4.096c113.162-56.977,239.328-92.578,366.622-83.924c37.024,2.517,73.854,7.324,110.737,11.32&#10;&#9;&#9;C1096.343,882.896,1101.392,895.911,1104.791,910.665z M432.454,932.102c-6.539-15.555-12.833-31.566-21.701-45.741&#10;&#9;&#9;c-8.767-14.013-14.571-29.865-20.328-45.273c-3.577-9.575-7.413-19.504-10.146-29.59c2.462,0.786,4.92,1.588,7.371,2.409&#10;&#9;&#9;c3.115,11.191,7.676,21.721,12.768,32.153c4.939,10.116,9.976,20.866,17.554,29.301c2.296,2.555,7.327,0.631,7.039-2.916&#10;&#9;&#9;c-1.506-18.554-13.588-35.794-21.718-53.025c1.78,0.659,3.561,1.315,5.335,1.994c14.785,18.917,32.113,36.208,34.52,61.527&#10;&#9;&#9;C444.372,895.811,444.825,922.605,432.454,932.102z M306.472,837.581c0.475-0.36,0.946-0.716,1.413-1.067&#10;&#9;&#9;c7.044-5.304,14.453-10.124,22.162-14.406c6.27-3.483,23.947-11.184,23.947-11.184s-29.615,34.581-40.819,54.345&#10;&#9;&#9;c-1.043,1.841-2.121,3.758-3.851,4.976c-1.565,1.102-3.5,1.514-5.38,1.873c-8.973,1.711-25.32,6.148-33.603,2.493&#10;&#9;&#9;C277.865,860.294,293.503,847.414,306.472,837.581z M254.398,903.042c2.507-3.8,4.698-7.686,6.795-11.579&#10;&#9;&#9;c9.034,1.101,20.047-1.054,27.627-1.696c1.841-0.156,3.993-0.251,6.295-0.373c-2.26,2.455-4.658,4.815-7.278,7.036&#10;&#9;&#9;c-8.724,7.396-18.766,13.404-29.529,17.299c-4.985,1.804-10.197,2.932-15.367,4.154&#10;&#9;&#9;C247.143,913.262,250.965,908.248,254.398,903.042z M286.754,918.018c13.56-8.9,24.598-20.001,33.362-33.566&#10;&#9;&#9;c3.007-4.654,5.912-9.37,8.804-14.093c6.573,11.659,10.709,24.009,13.848,37.225c-13.388,8.445-28.241,14.909-43.74,17.75&#10;&#9;&#9;c-10.213,1.872-20.574,2.669-30.996,2.83C274.929,925.183,281.381,921.544,286.754,918.018z M356.545,897.788&#10;&#9;&#9;c-2.225-6.892-5.307-13.686-8.142-19.97c-2.948-6.534-6.465-14.413-11.73-20.044c2.84-4.572,5.713-9.123,8.725-13.59&#10;&#9;&#9;c5.923-8.784,13.088-20.162,22.352-26.891c1.799,9.11,4.676,18.12,7.423,26.681c2.146,6.689,4.51,13.438,7.12,20.109&#10;&#9;&#9;c-3.021,4.591-4.97,10.205-7.886,14.681C369.674,886.027,363.338,892.325,356.545,897.788z M440.402,834.934&#10;&#9;&#9;c40.714,15.106,104.528,62.854,103.803,77.743c-0.11,2.259-27.29-21.49-33.345-25.298c-11.8-7.422-23.982-14.407-36.587-20.367&#10;&#9;&#9;c-6.713-3.174-13.465-6.662-20.648-8.538C450.295,850.101,445.794,842.224,440.402,834.934z M1077.48,850.494&#10;&#9;&#9;c-62.22-6.644-124.528-14.404-187.169-9.019c-66.354,5.704-131.802,23.866-193.694,48.004&#10;&#9;&#9;c-31.718,12.371-62.337,26.956-91.853,43.865c-0.326-0.256-0.614-0.546-0.955-0.788c-0.583-0.414-1.196-0.756-1.801-1.116&#10;&#9;&#9;c40.795-47.51,103.7-72.817,161.68-91.952c76.785-25.342,156.134-40.639,237.062-42.955c18.719-0.536,46.032-5.935,58.374,11.502&#10;&#9;&#9;c0.98,1.385,1.878,2.807,2.741,4.245c-5.672-0.816-11.622-0.547-17.261-0.629c-9.465-0.138-18.936-0.004-28.393,0.407&#10;&#9;&#9;c-17.244,0.749-35.614,2.08-51.87,8.212c-4.856,1.832-4.171,8.786,1.234,9.116c17.406,1.063,35.082-0.152,52.529-0.248&#10;&#9;&#9;c8.833-0.049,17.667,0.016,26.499-0.089c8.03-0.095,16.66,0.632,24.254-2.231C1071.931,834.609,1074.423,842.672,1077.48,850.494z&#10;&#9;&#9; M818.911,501.144c27.333-4.742,57.523-10.867,85.648-9.138c34.751,42.74,63.325,92.063,87.238,141.538&#10;&#9;&#9;c12.568,26.003,23.172,52.844,34.39,79.438c9.383,22.245,18.664,44.418,24.542,67.754c-4.918-1.55-10.338-2.385-16.395-2.598&#10;&#9;&#9;c-44.905-1.576-90.344,2.294-134.715,8.995c-78.023,11.783-158.443,33.928-228.944,70.049&#10;&#9;&#9;c-30.967,15.866-59.842,35.809-82.941,61.756c2.041-13.389,2.958-27.143,4.459-40.345c2.154-18.948,3.965-37.943,5.702-56.933&#10;&#9;&#9;c1.739-19.015,3.359-38.048,4.571-57.105c0.547-8.602-0.043-18.371,2.103-26.597c6.26,6.056,10.041,16.062,12.455,24.425&#10;&#9;&#9;c0.778,2.697,1.464,5.531,3.25,7.707c9.913,12.044,31.782-15.373,38.985-20.529c13.245-9.48,27.087-19.759,31.694-36.232&#10;&#9;&#9;c1.978-7.073,1.947-14.948,0.676-22.593c3.62,1.019,14.245,3.57,10.818,2.505c-5.307-1.648,13.223,4.508,27.809,4.958&#10;&#9;&#9;c9.901,0.306,25.757,2.016,30.561-4.997c5.034-7.348-24.463-49.279-33.715-55.076c-1.889-1.183-4.989-3.32-8.505-5.346&#10;&#9;&#9;c3.489-3.451,6.416-7.507,8.588-11.969c6.153-12.637,6.354-28.087-1.049-40.279c-5.681-9.356-14.333-15.159-24.052-18.73&#10;&#9;&#9;C703.18,560.763,729.74,516.615,818.911,501.144z M586.502,626.865c3.407,0.359,6.851,0.344,10.117-0.165&#10;&#9;&#9;c0.665,10.474,3.542,20.743,10.6,28.683c3.755,4.224,8.407,7.243,13.493,9.071c1.728,9.316,1.375,18.954,3.96,28.157&#10;&#9;&#9;c1.826,6.499,8.31,20.525,17.468,15.505c8.198-4.492-5.231-34.854-7.287-41.638c1.43-0.08,2.863-0.239,4.291-0.484&#10;&#9;&#9;c6.18-1.061,16.022-6.623,16.022-6.623s0.057,0.159,0.1,0.232c7.445,12.403,17.63,19.729,17.882,35.707&#10;&#9;&#9;c0.417,26.379-22.97,36.726-41.148,50.441c-6.053-14.49-17.174-28.161-24.488-40.562&#10;&#9;&#9;C593.331,681.144,583.947,654.818,586.502,626.865z M640.517,557.628c8.196,1.601,20.384,5.469,24.417,13.641&#10;&#9;&#9;c9.416,19.076-19.609,25.887-32.506,24.237c-11.377-1.457-20.836-11.744-19.661-23.449&#10;&#9;&#9;C614.181,557.981,627.133,555.018,640.517,557.628z M686.702,673.648c-4.071-9.819-11.41-22.361-22.642-23.668&#10;&#9;&#9;c2.358-3.68,4.005-7.774,4.84-12.094c7.976,4.651,16.907,7.313,26.503,6.255c15.705-1.732,28.846,11.505,39.837,22.875&#10;&#9;&#9;c1.592,1.647,14.6,17.842,13.291,18.961c-3.927,3.357-56.937-10.521-61.776-12.196C686.737,673.738,686.72,673.692,686.702,673.648&#10;&#9;&#9;z M614.307,610.468c0,0,11.056,3.726,16.928,4.037c5.991,0.317,17.704-2.168,17.704-2.168s5.169,14.498,2.761,23.202&#10;&#9;&#9;c-3.786,13.686-22.338,19.216-31.938,8.282C612.369,635.399,614.307,610.468,614.307,610.468z M710.941,612.795&#10;&#9;&#9;c-3.269,7.125-9.9,13.049-17.891,13.96c-13.13,1.496-24.228-9.648-32.32-18.504c15.528,0.393,24.056-31.353,20.394-31.713&#10;&#9;&#9;C700.218,578.414,720.948,590.988,710.941,612.795z M685.298,513.376c14.185,2.148,16.493,11.513,13.727,24.528&#10;&#9;&#9;c-0.677,3.185-1.386,6.448-3.144,9.19c-3.538,5.516-14.291,10.624-20.281,9.118c-0.814-0.205-3.781-5.619-9.461-9.002&#10;&#9;&#9;c-5.266-3.137-13.303-4.268-13.303-4.268S666.037,510.46,685.298,513.376z M593.034,527.238&#10;&#9;&#9;c2.674-12.89,20.177-28.255,31.909-13.996c14.38,17.478,6.084,23.529,6.084,23.529s-10.18-1.364-19.335,3.454&#10;&#9;&#9;c-9.155,4.818-13.491,12.046-13.491,12.046s-5.952-15.034-5.591-21.852C592.664,529.39,592.808,528.323,593.034,527.238z&#10;&#9;&#9; M593.293,563.024c0.932,2.132-3.048,10.496-1.596,18.879c1.788,10.325,9.396,21.682,9.396,21.682s-18.021,5.56-24.395,2.676&#10;&#9;&#9;c-9.106-4.12-21.009-14.983-18.485-25.841c3.25-13.969,22.817-18.241,35.005-17.487&#10;&#9;&#9;C593.242,562.934,593.266,562.964,593.293,563.024z M229.893,616.076c14.781-26.344,31.504-51.538,48.947-76.181&#10;&#9;&#9;c8.726-12.328,17.646-24.516,26.608-36.673c1.975-2.679,20.5-31.846,23.17-31.324c36.1,7.063,72.598,21.804,106.523,35.708&#10;&#9;&#9;c21.515,8.818,42.715,18.638,62.922,30.167c9.986,5.698,19.781,11.828,29.007,18.699c5.354,3.987,10.24,9.473,15.529,13.996&#10;&#9;&#9;c-2.971,6.128-3.644,13.534-0.877,22.388c4.538,14.516,17.941,25.689,32.004,30.943c-8.743,26.731-1.835,53.601,10.925,79.127&#10;&#9;&#9;c1.446,2.893,2.967,5.741,4.535,8.561c-4.771,15.285-3.318,34.047-4.434,49.412c-1.387,19.087-2.831,38.171-4.503,57.235&#10;&#9;&#9;c-1.664,18.962-3.598,37.895-5.467,56.838c-1.413,14.324-3.721,29.106-4.575,43.718c-13.703-27.131-39.656-49.245-63.251-66.363&#10;&#9;&#9;c-54.954-39.87-121.673-62.489-187.773-75.336c-52.441-10.192-105.885-14.373-159.264-14.628&#10;&#9;&#9;C171.729,709.76,203.881,662.436,229.893,616.076z M340.434,800.366c-4.826,1.771-9.442,3.892-13.635,6.03&#10;&#9;&#9;c-7.711,3.933-15.151,8.5-22.32,13.481c-27.619-5.806-55.343-11.305-83.275-15.387c-14.123-2.064-28.33-3.61-42.574-4.525&#10;&#9;&#9;c-3.717-0.239-7.569-0.543-11.471-0.789c10.169-5.788,20.045-12.408,30.002-18.023&#10;&#9;&#9;C245.373,783.282,293.591,789.047,340.434,800.366z M97.106,923.133c14.488-3.601,30.856-2.066,45.309-1.374&#10;&#9;&#9;c15.885,0.761,36.208,6.046,51.494,0.595c3.772-1.345,5.815-7.682,1.263-9.665c-16.18-7.049-38.158-6.143-55.586-6.595&#10;&#9;&#9;c-12.583-0.326-25.909-0.03-38.285,3.234c3.543-10.069,7.793-19.807,12.112-29.596c6.073,0.847,12.541,0.554,18.435,0.621&#10;&#9;&#9;c10.332,0.117,20.659,0.074,30.992,0.104c9.844,0.028,19.687,0.12,29.529,0.262c9.019,0.13,18.93,1.203,27.627-1.479&#10;&#9;&#9;c4.409-1.36,5.642-7.772,1.325-10.138c-15.671-8.592-39.426-6.092-56.731-5.855c-9.801,0.134-19.592,0.404-29.386,0.809&#10;&#9;&#9;c-4.763,0.197-9.904,0.102-14.975,0.378c7.734-17.259,15.483-34.471,22.496-52.059c11.178,1.535,22.905,1.049,34.079,2.101&#10;&#9;&#9;c14.693,1.382,29.287,3.562,43.84,5.983c22.066,3.67,43.898,8.478,65.713,13.378c-3.027,2.565-6.009,5.173-8.901,7.846&#10;&#9;&#9;c-11.871,10.97-20.318,22.066-27.602,36.339c-10.738,21.039-26.2,42.607-50.966,46.841c-10.098,1.726-6.797,16.233,2.286,16.896&#10;&#9;&#9;c35.76,2.609,72.625,7.739,107.999-0.439c19.962-4.615,39.285-15,55.466-27.362c8.74-6.677,16.698-14.2,23.147-23.15&#10;&#9;&#9;c1.488-2.065,2.71-4.045,3.736-5.999c1.284,2.522,2.6,5.021,3.989,7.458c4.762,8.357,8.64,16.194,12.46,25.142&#10;&#9;&#9;c2.758,6.461,5.516,12.922,8.274,19.384c1.097,2.57,2.194,5.14,3.291,7.71c1.675,3.924-0.431-0.938,1.293,3.032&#10;&#9;&#9;c1.524,3.508,6.183,4.599,9.528,3.877c26.988-5.828,30.808-42.09,29.606-64.57c-0.189-3.539-0.636-7.009-1.237-10.431&#10;&#9;&#9;c13.298,8.218,27.506,15.358,40.592,23.63c10.864,6.868,21.767,13.891,31.905,21.809c4.221,3.297,9.037,6.961,12.98,11.168&#10;&#9;&#9;c-8.366,4.689-15.131,11.813-19.407,21.563c-33.276-0.019-66.367,2.45-99.617,2.945c-27.692,0.412-55.399,0.038-83.088-0.362&#10;&#9;&#9;c-69.352-1.002-138.692-2.774-208.031-4.441c-15.006-0.361-30.013-0.752-45.022-1.078C92.784,942.717,94.743,932.53,97.106,923.133&#10;&#9;&#9;z M929.101,991.775c-111.336,0.498-221.943,0.362-333.198,4.503c-0.723,0.027-1.705-0.07-2.571-0.022&#10;&#9;&#9;c-3.532-13.938-12.053-34.631-27.205-35.462c-17.195-0.943-22.555,20.324-27.349,34.415c-47.899-1.002-95.798-2.038-143.699-2.927&#10;&#9;&#9;c-84.4-1.567-168.802-3.025-253.206-4.399c-25.008-0.407-50.017-0.825-75.025-1.189c-0.165-6.437-0.33-12.874-0.495-19.311&#10;&#9;&#9;c117.008,1.889,233.974,7.999,351.018,7.562c37.914-0.142,75.662-3.078,113.616-2.502c3.971,0.06,7.509-2.825,8.612-6.555&#10;&#9;&#9;c5.681-19.224,29.058-25.957,47.093-21.036c12.388,3.38,13.33,25.141,24.52,24.859c39.437-0.994,78.888-2.44,118.333-2.983&#10;&#9;&#9;c15.332-0.211,30.767,1.24,46.09,1.88c26.044,1.088,52.099,1.93,78.165,2.237c46.674,0.549,93.304-1.543,139.961-2.452&#10;&#9;&#9;c45.22-0.881,90.447-1.407,135.673-1.897c0.259,8.074,0.519,16.148,0.778,24.223C1063.177,991.368,996.135,991.475,929.101,991.775&#10;&#9;&#9;z" style="fill: rgb(32, 64, 81);"/>
	<path fill="#280412" d="M916.689,921.524c-17.227-2.079-36.51,3.46-53.757,5.225c-17.964,1.838-36.403,1.009-54.236,3.387&#10;&#9;&#9;c-8.151-1.066-10.111,13.027-1.955,14.448c18.709,3.259,39.2,0.72,57.987-1.089c17.702-1.704,39.123-2.372,54.913-11.072&#10;&#9;&#9;C925.213,929.353,921.992,922.164,916.689,921.524z" style="fill: rgb(32, 64, 81);"/>
	<path fill="#280412" d="M597.867,409.791c6.36-10.16,5.932-23.102,1.534-33.896c-4.233-10.391-12.552-19.69-23.72-22.595&#10;&#9;&#9;c-4.744-1.234-9.344-1.1-13.699-0.011c-0.607-18.925-12.032-37.941-32.027-38.659c-21.332-0.767-42.728,20.244-46.895,42.002&#10;&#9;&#9;c-8.538-5.117-17.747-7.417-29.255-3.87c-17.809,5.49-26.418,21.549-28.024,39.322c-2.309,25.545,17.125,39.039,38.659,39.251&#10;&#9;&#9;c-7.629,20.434-7.188,44.22,14.935,55.408c21.635,10.942,40.682-1.295,50.023-19.544c4.555,5.655,10.233,10.246,17.332,12.79&#10;&#9;&#9;c14.997,5.376,33.209-0.653,41.616-14.279c8.399-13.612,8.08-33.15-0.155-46.493C591.993,416.929,595.326,413.85,597.867,409.791z&#10;&#9;&#9; M581.3,382.852c4.929,12.142-0.237,16.484-11.222,19.568c-2.692,0.756-11.085,3.511-13.343,2.073&#10;&#9;&#9;c-0.435-0.277-0.191-5.944-1.898-9.781c-2.594-5.829-7.349-10.578-7.349-10.578S571.117,357.776,581.3,382.852z M511.985,421.816&#10;&#9;&#9;c-5.134-6.523-3.192-17.421-0.252-24.406c11.45-27.206,40.082,5.016,24.689,22.034&#10;&#9;&#9;C531.459,424.928,517.268,428.529,511.985,421.816z M483.892,469.287c-23.868-17.233,0.841-41.709,0.469-43.824&#10;&#9;&#9;c-0.706-4.011-42.791-6.596-43.421-28.037c-0.32-10.908,5.394-22.964,16.079-26.904c11.664-4.302,26.5-1.526,34.714,5.811&#10;&#9;&#9;c8.825,7.884,17.99-43.88,34.761-45.337c9.813-0.852,15.688,7.358,17.547,16.037c2.016,9.423-3.114,20.87-7.018,29.17&#10;&#9;&#9;c0.346-0.736-25.069-8.954-36.176,6.694c-7.148,10.07-9.304,23.578-7.502,35.723c2.097,14.135,11.819,21.435,23.008,22.998&#10;&#9;&#9;C516.378,458.143,501.438,481.955,483.892,469.287z M571.843,454.015c-4.348,7.06-13.013,5.814-20.66,6.389&#10;&#9;&#9;c-20.92,1.572-15.277-21.591-15.277-21.591s7.133-1.638,11.703-5.795c4.602-4.186,6.649-10.892,9.02-11.054&#10;&#9;&#9;c3.466-0.223,13.588,5.902,15.518,8.948c3.654,5.769,3.264,14.848,0.768,20.974C572.595,452.669,572.237,453.376,571.843,454.015z" style="fill: rgb(32, 64, 81);"/>
	<path fill="#280412" d="M320.048,741.313c11.5-3.996,19.587-12.171,24.834-22.227c15.184,21.949,41.267,39.837,66.374,25.402&#10;&#9;&#9;c22.316-12.83,19.912-35.985,8.141-54.387c4.902-0.397,9.668-1.541,14.075-3.732c13.55-6.736,19.106-23.253,13.217-37.089&#10;&#9;&#9;c-6.719-15.787-27.359-30.173-45.911-30.682c-1.733-14.021-15.125-26.08-31.314-30.635c-10.365-2.916-22.959-3.57-32.321,2.603&#10;&#9;&#9;c-3.309,2.182-5.625,4.93-7.176,7.997c-18.583-12.222-45.629-16.117-59.89-0.455c-15.31,16.813-6.184,43.632,10.117,59.041&#10;&#9;&#9;c-8.856,2.641-16.77,7.079-22.395,15.829c-11.985,18.646-4.871,38.414,10.087,52.783&#10;&#9;&#9;C281.507,738.843,301.229,747.852,320.048,741.313z M399.048,729.015c-20.411,9.064-42.096-15.705-47.858-32.985&#10;&#9;&#9;c-0.084-0.251-0.203-0.477-0.308-0.714c13.898,3.683,27.812,1.642,36.056-10.356C401.226,693.543,421.508,719.041,399.048,729.015z&#10;&#9;&#9; M355.52,636.3c9.577,1.201,18.5,6.635,21.783,18.3c1.49,5.294,1.708,11.095-0.338,16.199c-2.046,5.105-6.606,9.36-12.047,10.158&#10;&#9;&#9;c-3.593,0.527-7.238-0.431-10.654-1.663c-9.078-3.276-17.417-8.584-24.228-15.423C314.631,648.402,336.383,633.9,355.52,636.3z&#10;&#9;&#9; M428.274,657.014c7.018,18.734-24.138,12.217-34.7,9.14c0.884-7.958-0.472-15.663-3.629-22.351&#10;&#9;&#9;c0.724-0.43,1.417-0.972,2.057-1.663c0.868-0.937,1.642-1.879,2.375-2.823c4.061-3.105,13.55,0.99,16.937,2.611&#10;&#9;&#9;C417.497,644.888,425.734,650.234,428.274,657.014z M345.893,608.478c0.206-1.375,0.468-1.619,2.047-2.441&#10;&#9;&#9;c3.683-1.919,10.958-1.06,16.379,0.592c5.482,1.671,11.833,4.851,15.234,9.024c3.595,4.411,2.927,7.525-1.66,12.376&#10;&#9;&#9;c0.017,0.013,0.033,0.026,0.05,0.039c-0.202,0.23-0.392,0.485-0.589,0.724c1.711-2.079-21.279-6.772-22.141-6.909&#10;&#9;&#9;C348.175,620.76,344.869,615.311,345.893,608.478z M282.354,608.862c12.174-11.856,37.022,0.385,46.432,13.19&#10;&#9;&#9;c-1.521,0.419-2.971,0.863-4.298,1.316c-6.926,2.364-12.565,6.625-15.477,13.459c-2.367,5.555-2.827,11.419-2.418,17.36&#10;&#9;&#9;C288.914,656.246,268.646,622.212,282.354,608.862z M276.244,678.804c5.482-4.765,12.492-4.568,19.204-5.82&#10;&#9;&#9;c6.263-1.168,10.934-2.179,15.557-1.068c1.048,0.252,5.812,7.061,9.664,10.448c6.25,5.495,12.32,9.057,12.769,13.755&#10;&#9;&#9;c0.329,3.438-0.443,7.21-2.72,11.473c-3.372,6.313-8.179,11.935-14.272,15.758c-13.051,8.19-27.658,1.446-37.659-8.488&#10;&#9;&#9;C268.848,704.992,264.157,689.313,276.244,678.804z" style="fill: rgb(32, 64, 81);"/>
	<path fill="#280412" d="M628.816,363.286c-16.092,13.789-14.921,34.635,1.242,47.318c4.306,3.379,9.527,6.98,14.82,9.56&#10;&#9;&#9;c-2.541,3.077-4.803,6.415-6.606,9.903c-11.439,22.124-3.888,47.195,20.205,56.121c12.732,4.717,26.23,2.03,36.004-7.433&#10;&#9;&#9;c4.304-4.167,7.4-8.966,9.721-14.138c0.335,0.475,0.655,0.957,1.005,1.426c5.317,7.106,12.602,12.745,20.7,16.35&#10;&#9;&#9;c16.548,7.368,36.489,4.547,47.548-10.595c13.658-18.702,9.01-37.847-3.607-52.24c0.899-0.282,1.791-0.586,2.672-0.926&#10;&#9;&#9;c25.974,13.502,66.941,7.402,88.762-10.081c14.092-11.29,19.778-27.926,21.357-45.38c1.741-19.242-1.707-40.081,7.138-57.993&#10;&#9;&#9;c2.982-6.039-3.012-12.06-9.065-9.064c-9.593,4.748-19.441,8.794-29.232,12.988c1.799-16.799-0.099-35.219-9.71-48.633&#10;&#9;&#9;c-3.569-4.981-8.29-8.43-10.694-14.211c-2.751-6.616-3.819-13.96-5.077-20.97c-2.225-12.399-3.779-26.95-13.375-36.138&#10;&#9;&#9;c-2.896-2.772-8.455-2.592-10.405,1.341c-10.193,20.558-21.827,40.261-36.256,58.157c-11.519,14.286-24.067,28.147-31.789,44.997&#10;&#9;&#9;c-6.473,14.124-7.557,27.189-2.061,41.672c1.724,4.543,3.435,10.949,5.971,16.677c-1.905,0.817-10.374,7.154-12.199,8.027&#10;&#9;&#9;c3.373-13.973-1.178-38.936-17.568-45.646c-14.801-6.059-37.298-4.595-43.308,12.851c-3.081,8.945-1.829,18.778,0.895,28.267&#10;&#9;&#9;c-2.18-0.59-4.453-1.048-6.908-1.277C648.192,353.211,637.141,356.152,628.816,363.286z M691.114,398.561&#10;&#9;&#9;c4.237-3.996,11.028-6.405,18.351-4.911c9.654,1.97,23.703,20.677,9.872,26.896c-5.809,2.612-15.461,1.798-21.282-0.332&#10;&#9;&#9;C684.103,415.106,684.434,404.861,691.114,398.561z M765.877,359.298c14.04,1.562,17.281,23.962,11.424,32.359&#10;&#9;&#9;c-8.264,11.848-20.837,13.755-33.926,9.295c-0.273-0.093-0.497-6.072-4.24-10.576c-4.599-5.534-12.815-9.763-12.708-9.884&#10;&#9;&#9;C735.522,370.14,750.567,357.596,765.877,359.298z M759.039,458.949c-6.742,11.815-21.129,10.515-31.351,4.057&#10;&#9;&#9;c-5.369-3.392-11.065-8.724-14.043-14.404c-1.373-2.619-2.739-8.977-2.739-8.977s10.63-0.069,18.111-5.161&#10;&#9;&#9;c6.619-4.506,9.887-14.154,14.076-13.511C758.811,423.368,765.806,447.088,759.039,458.949z M860.21,390.791&#10;&#9;&#9;c-14.135,19.136-49.301,26.633-73.766,19.128c1.173-1.077,2.322-2.202,3.414-3.432c3.392-3.822,6.252-8.306,8.356-13.106&#10;&#9;&#9;c8.611-4.693,16.32-10.665,24.145-16.75c5.066-3.94,10.013-8.059,15.329-11.664c5.042-3.418,10.668-6.09,14.836-10.617&#10;&#9;&#9;c1.636-1.777,1.076-4.991-1.477-5.594c-11.787-2.787-23.821,5.923-32.801,12.58c-5.602,4.153-10.857,8.758-16.182,13.27&#10;&#9;&#9;c-0.224-6.762-2.33-13.337-6.891-18.923c11.284-7.669,22.894-14.901,34.744-21.616c13.848-7.847,28.518-13.534,42.966-19.826&#10;&#9;&#9;c-2.077,9.314-2.543,18.944-2.726,28.701C869.852,359.144,870.322,377.103,860.21,390.791z M744.521,330.709&#10;&#9;&#9;c-6.283-16.716,0.157-31.174,9.595-45.415c8.894-13.42,20-25.17,29.584-38.076c9.456-12.734,17.59-26.28,24.959-40.279&#10;&#9;&#9;c3.222,7.991,3.806,17.959,5.223,25.549c2.119,11.348,4.803,22.186,12.798,30.84c12.694,13.74,13.972,34.237,10.514,52.136&#10;&#9;&#9;c-4.718,2.22-9.387,4.573-13.967,7.164c-12.599,7.126-24.908,14.871-36.855,23.084c1.954-7.398,3.911-14.79,5.848-22.195&#10;&#9;&#9;c2.479-9.476,5.115-19.076,8.975-28.099c3.429-8.014,8.594-13.771,13.425-20.771c2.963-4.293-1.918-9.539-6.459-8.402&#10;&#9;&#9;c-17.76,4.448-25.465,34.273-29.023,49.2c-2.227,9.344-3.604,18.777-4.052,28.366c-0.014,0.296-0.035,0.599-0.052,0.898&#10;&#9;&#9;c-7.835-1.035-16.397,0.292-24.796,2.823C747.606,342.217,745.906,334.395,744.521,330.709z M681.654,337.269&#10;&#9;&#9;c0.571-11.535,11.813-12.315,19.658-8.567c19.896,9.507,10.639,40.98,11.499,47.631c0,0-19.692,0.159-20.204-0.215&#10;&#9;&#9;C685.78,371.14,681.274,345.35,681.654,337.269z M672.846,376.816c8.869,8.37-0.932,11.639-4.414,21.446&#10;&#9;&#9;c-4.91,13.837,4.039,27.09,15.442,34.35c3.343,2.128,7.01,3.797,10.827,4.989c-0.096,0.298-0.188,0.6-0.249,0.925&#10;&#9;&#9;c-1.922,10.207-5.375,22.604-14.295,29.087c-20.333,14.778-36.842-15.811-24.161-32.407c2.48-3.246,5.888-6.294,6.101-10.373&#10;&#9;&#9;c0.137-2.623-1.125-5.104-2.501-7.342c-6.553-10.659-18.984-15.899-23.956-27.055c-3.338-7.489,5.096-15.029,11.425-17.366&#10;&#9;&#9;c5.819-2.148,14.379-2.698,20.218-0.254C669.424,373.711,671.157,375.225,672.846,376.816z" style="fill: rgb(32, 64, 81);"/>
	<path fill="#280412" d="M909.3,697.52c-23.59,2.153-47.392,6.564-70.454,11.926c-51.286,11.924-101.529,31.791-150.148,51.771&#10;&#9;&#9;c-7.697,3.163-4.974,15.235,3.545,12.86c48.601-13.55,94.839-34.171,144.131-45.601c22.344-5.182,45.133-9.1,67.873-12.095&#10;&#9;&#9;c22.865-3.012,45.213-2.041,68.093-0.078c5.255,0.451,6.448-6.896,2.538-9.372C955.728,694.803,931.099,695.53,909.3,697.52z" style="fill: rgb(32, 64, 81);"/>
	<path fill="#280412" d="M775.728,685.82c25.063-11.855,53.785-15.963,81.14-18.434c14.231-1.286,28.529-1.957,42.806-2.506&#10;&#9;&#9;c11.732-0.452,25.954,1.018,37.132-3.004c4.703-1.692,4.744-7.933,0-9.616c-12.037-4.269-27.483-2.246-40.099-1.901&#10;&#9;&#9;c-15.385,0.42-30.752,1.553-46.036,3.379c-27.764,3.317-55.914,8.715-80.673,22.28C763.51,679.572,769.212,688.902,775.728,685.82z&#10;&#9;&#9;" style="fill: rgb(32, 64, 81);"/>
	<path fill="#280412" d="M807.125,624.345c18.765-5.618,37.877-9.772,57.068-13.638c9.316-1.877,18.626-3.754,27.905-5.81&#10;&#9;&#9;c8.866-1.964,18.741-3.444,26.341-8.646c4.175-2.857,2.378-8.634-2.473-9.131c-9.114-0.932-18.762,2.211-27.636,4.107&#10;&#9;&#9;c-9.29,1.984-18.592,3.898-27.873,5.929c-19.115,4.182-38.148,8.651-56.809,14.578C795.666,614.27,799.016,626.773,807.125,624.345&#10;&#9;&#9;z" style="fill: rgb(32, 64, 81);"/>
	<path fill="#280412" d="M827.069,567.472c13.253-1.421,27.089-1.32,40.136-3.956c4.085-0.825,3.856-7.065,0-8.035&#10;&#9;&#9;c-12.89-3.243-27.093-0.936-40.136,0.38C819.691,556.605,819.652,568.267,827.069,567.472z" style="fill: rgb(32, 64, 81);"/>
	<path fill="#280412" d="M498.128,751.921c-19.176-6.071-39.546-9.979-56.241-21.81c-5.32-3.77-12.258,5.077-7.035,9.118&#10;&#9;&#9;c14.852,11.49,32.617,17.404,50.28,23.159c9.337,3.042,18.689,6.079,27.64,10.156c7.797,3.551,14.619,9.296,22.613,12.255&#10;&#9;&#9;c3.08,1.14,6.205-2.327,5.285-5.285C535.593,763.2,512.565,756.491,498.128,751.921z" style="fill: rgb(32, 64, 81);"/>
	<path fill="#280412" d="M467.838,714.454c16.366,3.861,31.985,9.578,46.614,17.918c12.949,7.382,24.401,18.399,38.474,23.533&#10;&#9;&#9;c3.021,1.102,5.485-2.698,4.024-5.234c-7.926-13.747-23.88-22.729-37.539-29.861c-15.349-8.014-31.684-13.559-48.623-17.054&#10;&#9;&#9;C463.846,702.324,460.845,712.804,467.838,714.454z" style="fill: rgb(32, 64, 81);"/>
	<path fill="#280412" d="M333.454,542.998c18.634,7.519,35.613,20.079,54.836,25.899c2.778,0.841,5.214-3.026,2.921-5.018&#10;&#9;&#9;c-15.691-13.624-35.778-23.459-54.9-31.246C329.916,530.029,327.103,540.435,333.454,542.998z" style="fill: rgb(32, 64, 81);"/>
	<path fill="#280412" d="M372.623,523.098c8.83,4.571,16.634,11.624,25.399,15.812c2.988,1.428,6.3-0.915,5.551-4.267&#10;&#9;&#9;c-1.978-8.839-11.707-14.475-19.168-18.381c-9.851-5.158-20.296-9.031-28.407-16.908c-4.928-4.785-12.348,2.626-7.54,7.539&#10;&#9;&#9;C355.404,513.991,363.885,518.574,372.623,523.098z" style="fill: rgb(32, 64, 81);"/>
</g>
</svg>